<?xml version="1.0" encoding="utf-8"?>
<!-- Generator: Adobe Illustrator 24.1.0, SVG Export Plug-In . SVG Version: 6.00 Build 0)  -->
<svg version="1.1" id="Layer_1" xmlns="http://www.w3.org/2000/svg" xmlns:xlink="http://www.w3.org/1999/xlink" x="0px" y="0px"
	 viewBox="0 0 24 24" style="enable-background:new 0 0 24 24;" xml:space="preserve" width="24" height="23">
<path d="M22.2,15.1c-0.3,0-0.6,0.3-0.6,0.6V21c0,1-0.8,1.8-1.8,1.8H3c-1,0-1.8-0.8-1.8-1.8V5.3c0-1,0.8-1.8,1.8-1.8h5.3
	c0.3,0,0.6-0.3,0.6-0.6c0-0.3-0.3-0.6-0.6-0.6H3c-1.6,0-3,1.3-3,3V21c0,1.7,1.3,3,3,3h16.8c1.6,0,3-1.3,3-3v-5.3
	C22.7,15.3,22.5,15.1,22.2,15.1z"/>
<path d="M22.5,0.8c-1.1-1.1-2.8-1.1-3.8,0L8,11.5c-0.1,0.1-0.1,0.2-0.2,0.3l-1.4,5.1c-0.1,0.2,0,0.4,0.2,0.6
	c0.2,0.2,0.4,0.2,0.6,0.2l5.1-1.4c0.1,0,0.2-0.1,0.3-0.2L23.2,5.3c1-1.1,1-2.8,0-3.8L22.5,0.8z M9.3,11.9l8.7-8.8L20.9,6l-8.7,8.8
	L9.3,11.9z M8.8,13l2.2,2.3l-3.1,0.9L8.8,13z M22.4,4.5l-0.6,0.6l-2.8-2.8l0.6-0.6c0.6-0.6,1.5-0.6,2.1,0l0.7,0.7
	C23,2.9,23,3.9,22.4,4.5z"/>
</svg>
