<?xml version="1.0" encoding="utf-8"?>
<!-- Generator: Adobe Illustrator 24.1.0, SVG Export Plug-In . SVG Version: 6.00 Build 0)  -->
<svg version="1.1" id="Capa_1" xmlns="http://www.w3.org/2000/svg" xmlns:xlink="http://www.w3.org/1999/xlink" x="0px" y="0px"
	 viewBox="0 0 50 46" style="enable-background:new 0 0 50 46;" xml:space="preserve">
<style type="text/css">
	.st0{fill:#FFFFFF;}
</style>
<path class="st0" d="M25,42.7c-9.3,0-16.9-7.1-18.4-16.4h2.8l-4.7-6.6L0,26.3h3.4C4.9,37.4,14,46,25,46c7.9,0,14.8-4.4,18.7-11.1
	l-2-2.9C38.5,38.4,32.2,42.7,25,42.7z"/>
<path class="st0" d="M25,0C17.1,0,10.2,4.5,6.3,11.2l2,2.8C11.5,7.6,17.8,3.3,25,3.3c9.3,0,16.9,7.1,18.4,16.4h-2.8l4.7,6.6l4.7-6.6
	h-3.4C45.1,8.6,36,0,25,0z"/>
</svg>
