<svg xmlns="http://www.w3.org/2000/svg" width="17" height="18" viewBox="0 0 17 18"><g><g><path d="M8.946.223l1.405 1.926c.253.346-.001.831-.446.831h-.86v9.248a.537.537 0 0 1-.545.527.537.537 0 0 1-.546-.527V2.98h-.86c-.44 0-.7-.482-.446-.831L8.054.223c.22-.3.678-.294.892 0zm3.804 2.451C15.298 4.098 17 6.758 17 9.787 17 14.327 13.198 18 8.5 18S0 14.327 0 9.787C0 6.76 1.7 4.1 4.25 2.674a.557.557 0 0 1 .745.192.518.518 0 0 1-.199.721c-2.215 1.238-3.704 3.553-3.704 6.2 0 3.947 3.323 7.158 7.408 7.158 4.085 0 7.408-3.21 7.408-7.158 0-2.646-1.488-4.961-3.704-6.2a.518.518 0 0 1-.2-.72.556.556 0 0 1 .746-.193z"/></g></g></svg>