<?xml version="1.0" encoding="utf-8"?>
<!-- Generator: Adobe Illustrator 24.1.0, SVG Export Plug-In . SVG Version: 6.00 Build 0)  -->
<svg version="1.1" id="_x31__x2C_5" xmlns="http://www.w3.org/2000/svg" xmlns:xlink="http://www.w3.org/1999/xlink" x="0px"
	 y="0px" viewBox="0 0 61 57" style="enable-background:new 0 0 61 57;" xml:space="preserve" width="61" height="57">
<style type="text/css">
	.st0{fill:#FFFFFF;}
</style>
<g>
	<path class="st0" d="M30.5,49.2c-8.4,0-15.3-7-15.3-15.5s6.8-15.5,15.3-15.5s15.3,7,15.3,15.5S38.9,49.2,30.5,49.2z M30.5,22
		c-6.3,0-11.4,5.2-11.4,11.7c0,6.4,5.1,11.7,11.4,11.7s11.4-5.2,11.4-11.7S36.8,22,30.5,22z"/>
</g>
<g>
	<path class="st0" d="M28.9,40.2c-0.5,0-0.9-0.2-1.3-0.5l-4.2-3.9c-0.8-0.7-0.8-2-0.1-2.7c0.7-0.8,1.9-0.8,2.7-0.1l2.8,2.6l6-6.4
		c0.7-0.8,1.9-0.8,2.7-0.1c0.8,0.7,0.8,2,0.1,2.7l-7.3,7.8C29.9,40,29.4,40.2,28.9,40.2z"/>
</g>
<g>
	<path class="st0" d="M54,57H7c-3.9,0-7-3.2-7-7.1V7.1C0,3.2,3.1,0,7,0h47c3.9,0,7,3.2,7,7.1v42.8C61,53.8,57.9,57,54,57z M7,3.9
		c-1.8,0-3.2,1.5-3.2,3.2v42.8c0,1.8,1.4,3.2,3.2,3.2h47c1.8,0,3.2-1.5,3.2-3.2V7.1c0-1.8-1.4-3.2-3.2-3.2H7z"/>
</g>
<g>
	<path class="st0" d="M59.1,13H1.9C0.9,13,0,12.1,0,11s0.9-1.9,1.9-1.9h57.2c1.1,0,1.9,0.9,1.9,1.9S60.1,13,59.1,13z"/>
</g>
</svg>
