<svg xmlns="http://www.w3.org/2000/svg" width="17" height="17" viewBox="0 0 17 17"><g><g><path fill="#434343" d="M8.721 7.277a.276.276 0 0 1-.082-.206V5.357a.276.276 0 0 1 .291-.286h4.072a.275.275 0 0 1 .29.286v1.714a.275.275 0 0 1-.081.206.285.285 0 0 1-.21.08h-4.07a.286.286 0 0 1-.21-.08zm0-4.572A.276.276 0 0 1 8.64 2.5V.786A.276.276 0 0 1 8.93.5h2.327a.275.275 0 0 1 .29.286V2.5a.275.275 0 0 1-.081.205.285.285 0 0 1-.21.08H8.93a.286.286 0 0 1-.209-.08zM7.104 13.152a.277.277 0 0 1 .081.205c0 .071-.03.143-.09.214l-2.9 2.849a.307.307 0 0 1-.209.08.33.33 0 0 1-.209-.08L.87 13.562c-.09-.095-.112-.199-.064-.312.049-.12.14-.179.273-.179h1.745V.786A.276.276 0 0 1 3.113.5H4.86a.275.275 0 0 1 .29.286V13.07h1.745c.085 0 .155.027.21.08zm9.678 1.348v1.714a.276.276 0 0 1-.29.286H8.93a.276.276 0 0 1-.29-.286V14.5a.276.276 0 0 1 .29-.286h7.562a.275.275 0 0 1 .29.286zm-8.06-2.652a.275.275 0 0 1-.083-.205V9.929a.276.276 0 0 1 .291-.286h5.817a.276.276 0 0 1 .29.286v1.714a.275.275 0 0 1-.29.285H8.93a.286.286 0 0 1-.209-.08z"/></g></g></svg>