<svg xmlns="http://www.w3.org/2000/svg" width="67" height="67" viewBox="0 0 67 67"><g><g><path fill="#fff" d="M66.9 20.127c-.203.49-.68.808-1.21.808H54.7v37.69c0 .722-.586 1.308-1.309 1.308H41.351a1.309 1.309 0 0 1-1.308-1.308v-7.11a1.309 1.309 0 0 1 2.617 0v5.801h9.422v-37.69c0-.722.586-1.308 1.308-1.308h9.141L47.371 3.156 32.21 18.318h9.14c.723 0 1.309.586 1.309 1.309v15.922a1.309 1.309 0 0 1-2.617 0V20.935H29.05a1.308 1.308 0 0 1-.926-2.234L46.445.38c.511-.51 1.34-.51 1.851 0l18.32 18.321c.374.375.486.937.283 1.426zM42.66 40.86v.042a1.309 1.309 0 0 1-2.617 0v-.042a1.309 1.309 0 0 1 2.617 0zm-3.786 7.435l-18.32 18.322a1.304 1.304 0 0 1-1.85 0L.384 48.295a1.309 1.309 0 0 1 .925-2.234h10.992V8.372c0-.723.586-1.309 1.309-1.309h12.038c.723 0 1.309.586 1.309 1.31v4.405a1.309 1.309 0 0 1-2.617 0V9.681h-9.422v37.69c0 .722-.586 1.308-1.308 1.308H4.468L19.63 63.84l15.16-15.162h-9.14a1.309 1.309 0 0 1-1.31-1.309V25.385a1.309 1.309 0 0 1 2.618 0v20.677h10.992a1.308 1.308 0 0 1 .925 2.233zM19.63 37.302v9.99a1.309 1.309 0 1 1-2.617 0v-9.99a1.309 1.309 0 0 1 2.617 0zm0-4.274v.017a1.309 1.309 0 1 1-2.617 0v-.017a1.309 1.309 0 0 1 2.617 0z"/></g></g></svg>